<svg width="1753" height="439" viewBox="0 0 1753 439" fill="none" xmlns="http://www.w3.org/2000/svg">
<path d="M218.795 342.8H0.395313V281.2L149.355 1.19998H260.235V72.88L128.635 320.4H218.795V250.96L247.355 197.2H344.795V415.6H383.995V438H162.795V415.6H218.795V342.8ZM1038.98 53.28V386.48L986.897 438.56L766.257 438L714.177 385.92V52.72L766.257 0.63999L986.897 1.19998L1038.98 53.28ZM842.977 23.04V415.6L910.177 416.16V23.6L842.977 23.04ZM1587.62 342.8H1369.22V281.2L1518.18 1.19998H1629.06V72.88L1497.46 320.4H1587.62V250.96L1616.18 197.2H1713.62V415.6H1752.82V438H1531.62V415.6H1587.62V342.8Z" fill="#5F8DFF"/>
</svg>
