<svg width="307" height="356" viewBox="0 0 307 356" fill="none" xmlns="http://www.w3.org/2000/svg">
<path d="M167.886 0C157.054 1.10772 149.703 4.89022 145.274 10.3939C140.845 15.8977 139.491 22.3441 138.524 28.6149L138.476 34.8628H150.272V29.7058C151.102 24.6112 152.243 20.4463 154.499 17.6417C156.711 14.8932 160.517 12.7602 168.034 11.8028C174.052 12.3782 178.03 14.0695 180.624 16.7443C183.327 19.531 185.045 23.6337 185.67 29.6259V34.8628H197.465L197.441 28.7626C196.615 20.7493 194.082 13.8137 189.101 8.6789C184.12 3.54427 176.976 0.648612 167.886 0ZM197.465 34.8628L197.466 81.3581C197.466 103.774 178.878 122.105 156.148 122.105C133.417 122.105 114.875 103.774 114.875 81.3581V34.8628H82.3113C66.7968 34.8628 54.1013 47.3486 54.1013 62.6486V295.045C54.1013 310.344 66.7968 322.819 82.3113 322.819H277.488C293.705 322.819 307 309.753 307 293.761V122.105H232.864C229.589 122.117 226.931 119.496 226.943 116.266V34.8628H197.465ZM114.875 34.8628H126.682V29.0697C126.694 25.8563 124.054 23.2413 120.796 23.2303C117.521 23.2188 114.862 25.8395 114.875 29.0697V34.8628ZM126.682 34.8628V81.3581C126.682 97.4878 139.792 110.473 156.148 110.473C172.504 110.473 185.671 97.4878 185.671 81.3581L185.67 34.8628H173.875V81.3581C173.875 90.9257 165.85 98.8405 156.148 98.8405C146.446 98.8405 138.478 90.9257 138.478 81.3581L138.476 34.8628H126.682ZM173.875 34.8628V29.0697C173.887 25.8395 171.23 23.2175 167.955 23.2303C164.696 23.242 162.056 25.8563 162.068 29.0697V34.8628H173.875ZM162.068 34.8628H150.272L150.273 81.3581C150.273 84.6392 152.821 87.1969 156.148 87.1969C159.475 87.1969 162.069 84.6392 162.068 81.3581V34.8628ZM238.739 110.473H304.881L239.389 36.2996L238.739 110.473ZM44.483 116.312L1.03349 269.247C-3.17576 284.057 5.86519 299.615 21.0189 303.371L47.7198 309.994C45.6545 305.408 44.483 300.354 44.483 295.045V116.312ZM85.4099 151.175H256.42C259.678 151.163 262.328 153.756 262.341 156.968C262.353 160.198 259.696 162.82 256.42 162.807H85.4099C82.1346 162.819 79.4762 160.198 79.4891 156.968C79.5009 153.756 82.1526 151.162 85.4099 151.175ZM85.4099 209.348H173.875C177.115 209.359 179.737 211.946 179.75 215.141C179.762 218.353 177.133 220.967 173.875 220.98H85.4099C82.1346 220.992 79.4763 218.371 79.4891 215.141C79.5009 211.929 82.1526 209.335 85.4099 209.348ZM85.4099 267.486H226.943C230.218 267.475 232.877 270.095 232.864 273.325C232.852 276.537 230.2 279.131 226.943 279.118H85.4099C82.1526 279.13 79.5018 276.537 79.4891 273.325C79.4773 270.095 82.1346 267.474 85.4099 267.486ZM130.541 332.316L214.618 354.547C230.282 358.686 246.556 349.433 250.978 333.151L130.541 332.316Z" fill="#5F8DFF"/>
</svg>
